<svg width="50" height="50" viewBox="0 0 50 50" fill="none" xmlns="http://www.w3.org/2000/svg">
<path d="M37.5 28.5C37.5 25.1848 36.183 22.0054 33.8388 19.6612C31.4946 17.317 28.3152 16 25 16C21.6848 16 18.5054 17.317 16.1612 19.6612C13.817 22.0054 12.5 25.1848 12.5 28.5C12.5 43.0833 6.25 47.25 6.25 47.25H43.75C43.75 47.25 37.5 43.0833 37.5 28.5Z" stroke="black" stroke-width="2" stroke-linecap="round" stroke-linejoin="round"/>
<path d="M28.6043 43.75C28.2381 44.3814 27.7123 44.9055 27.0798 45.2699C26.4473 45.6342 25.7301 45.826 25.0002 45.826C24.2702 45.826 23.5531 45.6342 22.9205 45.2699C22.288 44.9055 21.7623 44.3814 21.396 43.75" stroke="black" stroke-width="2" stroke-linecap="round" stroke-linejoin="round"/>
</svg>
