<svg width="50" height="50" viewBox="0 0 50 50" fill="none" xmlns="http://www.w3.org/2000/svg">
<g clip-path="url(#clip0_357_22)">
<path d="M25 38.5C28.4518 38.5 31.25 35.7018 31.25 32.25C31.25 28.7982 28.4518 26 25 26C21.5482 26 18.75 28.7982 18.75 32.25C18.75 35.7018 21.5482 38.5 25 38.5Z" stroke="black" stroke-width="2" stroke-linecap="round" stroke-linejoin="round"/>
<path d="M40.4168 38.1667C40.1395 38.795 40.0568 39.4921 40.1793 40.1679C40.3019 40.8437 40.624 41.4673 41.1043 41.9583L41.2293 42.0833C41.6167 42.4703 41.9241 42.9298 42.1337 43.4357C42.3434 43.9415 42.4514 44.4837 42.4514 45.0312C42.4514 45.5788 42.3434 46.121 42.1337 46.6268C41.9241 47.1327 41.6167 47.5922 41.2293 47.9792C40.8424 48.3666 40.3828 48.6739 39.877 48.8836C39.3712 49.0933 38.829 49.2012 38.2814 49.2012C37.7338 49.2012 37.1917 49.0933 36.6858 48.8836C36.18 48.6739 35.7205 48.3666 35.3335 47.9792L35.2085 47.8542C34.7175 47.3739 34.0939 47.0517 33.4181 46.9292C32.7422 46.8066 32.0452 46.8893 31.4168 47.1667C30.8006 47.4308 30.2751 47.8693 29.905 48.4282C29.5348 48.9871 29.3362 49.6421 29.3335 50.3125V50.6667C29.3335 51.7717 28.8945 52.8315 28.1131 53.6129C27.3317 54.3943 26.2719 54.8333 25.1668 54.8333C24.0618 54.8333 23.002 54.3943 22.2206 53.6129C21.4391 52.8315 21.0002 51.7717 21.0002 50.6667V50.4792C20.984 49.7896 20.7608 49.1208 20.3596 48.5598C19.9583 47.9988 19.3975 47.5714 18.7502 47.3333C18.1218 47.056 17.4248 46.9733 16.7489 47.0958C16.0731 47.2184 15.4495 47.5405 14.9585 48.0208L14.8335 48.1458C14.4465 48.5332 13.987 48.8406 13.4812 49.0502C12.9753 49.2599 12.4331 49.3679 11.8856 49.3679C11.338 49.3679 10.7958 49.2599 10.29 49.0502C9.78417 48.8406 9.32463 48.5332 8.93766 48.1458C8.55026 47.7589 8.24293 47.2993 8.03325 46.7935C7.82356 46.2877 7.71563 45.7455 7.71563 45.1979C7.71563 44.6504 7.82356 44.1082 8.03325 43.6023C8.24293 43.0965 8.55026 42.637 8.93766 42.25L9.06266 42.125C9.54295 41.634 9.86513 41.0104 9.98767 40.3346C10.1102 39.6587 10.0275 38.9617 9.75016 38.3333C9.48607 37.7171 9.04757 37.1916 8.48863 36.8215C7.92969 36.4513 7.27472 36.2527 6.60433 36.25H6.25016C5.14509 36.25 4.08529 35.811 3.30388 35.0296C2.52248 34.2482 2.0835 33.1884 2.0835 32.0833C2.0835 30.9783 2.52248 29.9185 3.30388 29.1371C4.08529 28.3557 5.14509 27.9167 6.25016 27.9167H6.43766C7.12723 27.9005 7.79601 27.6773 8.35704 27.2761C8.91807 26.8748 9.3454 26.314 9.5835 25.6667C9.86082 25.0383 9.94354 24.3413 9.82101 23.6654C9.69847 22.9896 9.37628 22.366 8.896 21.875L8.771 21.75C8.38359 21.363 8.07626 20.9035 7.86658 20.3977C7.6569 19.8918 7.54897 19.3496 7.54897 18.8021C7.54897 18.2545 7.6569 17.7123 7.86658 17.2065C8.07626 16.7007 8.38359 16.2411 8.771 15.8542C9.15797 15.4668 9.6175 15.1594 10.1233 14.9498C10.6292 14.7401 11.1713 14.6321 11.7189 14.6321C12.2665 14.6321 12.8087 14.7401 13.3145 14.9498C13.8203 15.1594 14.2799 15.4668 14.6668 15.8542L14.7918 15.9792C15.2828 16.4595 15.9064 16.7816 16.5823 16.9042C17.2581 17.0267 17.9551 16.944 18.5835 16.6667H18.7502C19.3663 16.4026 19.8919 15.9641 20.262 15.4051C20.6322 14.8462 20.8308 14.1912 20.8335 13.5208V13.1667C20.8335 12.0616 21.2725 11.0018 22.0539 10.2204C22.8353 9.43899 23.8951 9 25.0002 9C26.1052 9 27.165 9.43899 27.9464 10.2204C28.7278 11.0018 29.1668 12.0616 29.1668 13.1667V13.3542C29.1695 14.0246 29.3681 14.6795 29.7383 15.2385C30.1085 15.7974 30.634 16.2359 31.2502 16.5C31.8785 16.7773 32.5756 16.86 33.2514 16.7375C33.9272 16.615 34.5508 16.2928 35.0418 15.8125L35.1668 15.6875C35.5538 15.3001 36.0133 14.9928 36.5192 14.7831C37.025 14.5734 37.5672 14.4655 38.1147 14.4655C38.6623 14.4655 39.2045 14.5734 39.7103 14.7831C40.2162 14.9928 40.6757 15.3001 41.0627 15.6875C41.4501 16.0745 41.7574 16.534 41.9671 17.0398C42.1768 17.5457 42.2847 18.0879 42.2847 18.6354C42.2847 19.183 42.1768 19.7252 41.9671 20.231C41.7574 20.7368 41.4501 21.1964 41.0627 21.5833L40.9377 21.7083C40.4574 22.1993 40.1352 22.8229 40.0127 23.4988C39.8901 24.1746 39.9728 24.8716 40.2502 25.5V25.6667C40.5142 26.2829 40.9528 26.8084 41.5117 27.1785C42.0706 27.5487 42.7256 27.7473 43.396 27.75H43.7502C44.8552 27.75 45.915 28.189 46.6964 28.9704C47.4778 29.7518 47.9168 30.8116 47.9168 31.9167C47.9168 33.0217 47.4778 34.0815 46.6964 34.8629C45.915 35.6443 44.8552 36.0833 43.7502 36.0833H43.5627C42.8923 36.086 42.2373 36.2846 41.6784 36.6548C41.1194 37.025 40.6809 37.5505 40.4168 38.1667Z" stroke="black" stroke-width="2" stroke-linecap="round" stroke-linejoin="round"/>
</g>
<defs>
<clipPath id="clip0_357_22">
<rect width="50" height="50" fill="white"/>
</clipPath>
</defs>
</svg>
